<svg xmlns="http://www.w3.org/2000/svg" width="928.53" height="710.75" viewBox="0 0 928.53 710.75">
  <defs>
    <style>
      .cls-1 {
        fill: #fff;
        fill-rule: evenodd;
      }
    </style>
  </defs>
  <path id="Forma_1" data-name="Forma 1" class="cls-1" d="M397,584v73H247V849c118.766,55.142,243.258,35.747,318-35,61.635-58.34,78.091-147.541,75-222-2.812-67.733-24.432-152.251-86-208-87.646-79.361-237.148-92.969-374-14V281a458.846,458.846,0,0,1,212-36H830c86.555-6.086,178.9,16.848,229,83,20,26.408,30.51,53.3,34,78,5.01,35.4-2.7,71.271-18,100-42.33,79.467-145.684,108.251-239,160-14.849,8.234-48.852,27.876-65,67-8.149,19.743-14.212,50.326-2,80,6.071,14.752,18.161,32.665,44,49,18.194,11.5,49.324,22.087,93,21,64.288-1.6,130.18-26.692,188-63v95a383.125,383.125,0,0,1-192,38l-486,1a450.035,450.035,0,0,1-250-59V584H397Z" transform="translate(-166 -243.938)"/>
</svg>
