<svg id="roupa" xmlns="http://www.w3.org/2000/svg" width="1024" height="1024" viewBox="0 0 1024 1024">
  <defs>
    <style>
      .cls-1 {
        fill: #e0e9f7;
      }

      .cls-1, .cls-10, .cls-11, .cls-12, .cls-13, .cls-14, .cls-2, .cls-3, .cls-4, .cls-5, .cls-6, .cls-7, .cls-8, .cls-9 {
        fill-rule: evenodd;
      }

      .cls-2 {
        fill: #5f7fb2;
      }

      .cls-3 {
        fill: #373bac;
      }

      .cls-4 {
        fill: #00007d;
      }

      .cls-10, .cls-13, .cls-14, .cls-5, .cls-6, .cls-9 {
        fill: none;
      }

      .cls-5, .cls-6 {
        stroke: #00001a;
      }

      .cls-5 {
        stroke-width: 20px;
      }

      .cls-10, .cls-13, .cls-6, .cls-9 {
        stroke-linecap: round;
      }

      .cls-10, .cls-13, .cls-6 {
        stroke-linejoin: round;
      }

      .cls-10, .cls-13, .cls-14, .cls-6, .cls-9 {
        stroke-width: 25px;
      }

      .cls-7 {
        fill: #329f2c;
      }

      .cls-8 {
        fill: #027500;
      }

      .cls-10, .cls-9 {
        stroke: #001b00;
      }

      .cls-11 {
        fill: #ff3714;
      }

      .cls-12 {
        fill: #a80000;
      }

      .cls-13 {
        stroke: #1a0300;
      }

      .cls-14 {
        stroke: #011b01;
      }
    </style>
  </defs>
  <path id="Forma_8" data-name="Forma 8" class="cls-1" d="M556,771l-3,67c-0.012.415,77.766,34.927,93.892,32.344C662.756,867.8,741,872,741,872l81-39,16-55-14-60Z"/>
  <path id="Forma_9" data-name="Forma 9" class="cls-2" d="M576,828a161.62,161.62,0,0,1-1-23c0.131-4.694.462-9.332,1-14a551.7,551.7,0,0,0,239-34,144.558,144.558,0,0,1-24,83l26,4,18-57-6-65L556,762l1,72Z"/>
  <path id="Forma_11" data-name="Forma 11" class="cls-3" d="M639,767l29,105,36-3,49-131Z"/>
  <path id="Forma_12" data-name="Forma 12" class="cls-4" d="M646,790a523.5,523.5,0,0,0,86-12c10.484-2.365,20.674-4.994,31-8l-14-30L641,759Z"/>
  <path id="Forma_7" data-name="Forma 7" class="cls-5" d="M823,717a122.385,122.385,0,0,1,12,76,121.113,121.113,0,0,1-23,53l-75,31c-12.555,2.328-27.257-3.667-40-4-17.68-.462-33.144,3.5-50-2l-88-35a99.7,99.7,0,0,1,7-88Z"/>
  <path id="Forma_10" data-name="Forma 10" class="cls-6" d="M664,867a167.827,167.827,0,0,0-2-31,172.916,172.916,0,0,0-28-70l-17,2,30,41m64,60a271.593,271.593,0,0,1,40-125l30-2-43,52"/>
  <path id="Forma_5" data-name="Forma 5" class="cls-7" d="M609,400l48,27a113.371,113.371,0,0,1,28-29,114.99,114.99,0,0,1,57-21,189.782,189.782,0,0,1,30,15c67.6,41.689,102.211,122.295,112,210a95.035,95.035,0,0,1-1,38c-15.922,66.571-110.693,117.979-257,128L474,754l54-242ZM578,832a162.43,162.43,0,0,1,84,39L553,912s-37.157-53.563-33-58S578,832,578,832Zm155,37,72-28,65,55-47-3,9,48-65-41-40,37Z"/>
  <path id="Forma_6" data-name="Forma 6" class="cls-8" d="M835,465c18.941,38.419,25.259,75.161,18,109-20.033,93.385-145.028,173.861-327,169q2.5,12.5,5,25l176-5,137-58,37-68L865,488ZM652,433l-17,40H612l-6-73ZM785,850a37.778,37.778,0,0,1,40,35l26,3-37-42Zm25,32c-2.335-1.8-4.4-2.63-6-2-6.791,2.678-2.226,30.583,3,55l21,6Zm-44,13a103.756,103.756,0,0,0-42,18q4,12,8,24ZM634,854l-74,28-14,24,112-40Z"/>
  <path id="head" class="cls-9" d="M637,478c16.474-58.889,55.254-95.984,95-100,48.829-4.934,89.706,42.5,120,102,37.925,74.494,45.274,185.271-11,232-13.734,11.4-28.437,16.211-38,19-65.382,19.065-138.974,35.623-173,37a553.662,553.662,0,0,1-129-10q20.5-129,41-258l38-111a165.8,165.8,0,0,1,72,32"/>
  <path id="pes" class="cls-10" d="M731,868a278.738,278.738,0,0,1,39-20c14.576-6.016,25.792-8.713,38-6,12.493,2.776,21.922,11.118,25,14,23.512,22.015,67.275,56.487,63,62-5.052,6.515-68.167-39.051-79-27-8.8,9.8,24.611,49.8,17,57-2.733,2.585-9.739-.026-17-4-22.6-12.368-32.178-39.072-47-40-21.764-1.363-38.732,50.061-46,48C717.057,950.031,725.027,901.033,731,868Zm-236,0a272.218,272.218,0,0,1,42-24q12.246-5.618,25-10a98.369,98.369,0,0,1,102,39c-19.084,6.355-37.442,12.909-56,20-40.7,15.55-68.014,28.04-73,21-4.4-6.209,10.675-24.648,26-41-24.7,7.992-59.562,18.435-62,13-1.849-4.122,15.6-15.953,30-25Z"/>
  <path id="Forma_2" data-name="Forma 2" class="cls-9" d="M674,534c5.626-35.763,32.83-63.273,66-69,38.122-6.582,77.545,16.667,91,56"/>
  <path id="Forma_3" data-name="Forma 3" class="cls-9" d="M607,560a98.3,98.3,0,0,0-107-6"/>
  <path id="Forma_4" data-name="Forma 4" class="cls-9" d="M820,643c-3.793,14.261-10.323,24.615-20,30a39.688,39.688,0,0,1-13,4c-21.681,2.317-192.143,26.6-280,39"/>
  <path id="coração_color" class="cls-11" d="M307,361c-50.89-67.441-140.459-87.424-208-52C44.007,337.843,9.485,400.532,15,469a254.493,254.493,0,0,0,27,64c26.332,44.215,60.137,69.6,85,87,24.476,17.13,57.842,40.172,70,47,72.007,40.439,209.745,133.227,311,202A518.881,518.881,0,0,1,617,486c9.613-88.126-44.567-168.5-123-191C427.567,275.943,352.252,301,307,361Z"/>
  <path id="coração_shadow" class="cls-12" d="M313,661a128.409,128.409,0,0,1,14,53,125.854,125.854,0,0,1-2,28l-75-52ZM477,854l7-51c-25.1-3.381-47.782-18.053-58-41a68.154,68.154,0,0,1-4-42l89,36,1,123Zm36-264c0.706-35.089,7.247-67.4,20-97,12.766-29.631,27.572-47.8,28-79,0.474-34.52-16.858-67.678-47-99l82,56a175.445,175.445,0,0,1,15,106L548,597ZM279,330a356.487,356.487,0,0,0-3,99l34-64Z"/>
  <path id="coração_traço" class="cls-13" d="M281,425c22.708-77.522,87.884-129.292,158-133,96.766-5.117,174.294,82,178,153,2.308,44.214-24.175,77.941-35,93-56.622,78.766-78.62,194.767-72,343-33.331-27.358-66.515-52.991-101-78C194.949,647.766,27.222,591.261,17,472c-5.4-63.013,30.379-141.478,97-168,56.991-22.688,131.786-5.021,190,54"/>
  <path id="hands_color" class="cls-7" d="M175,601c44.568-20.362,99.12-1.922,121,41,19.8,38.85,7.165,86.431-23,111-45.316,36.908-125.447,18.172-147-36C109.779,676.23,129.352,621.855,175,601Zm206,95c14.768,57.885,80.26,98.314,137,77,51.859-19.48,76.193-82.953,58-135-17.327-49.57-72.383-86.264-127-70C394.046,584.365,368.192,645.8,381,696Z"/>
  <path id="hands_shadow" class="cls-8" d="M158,615c34.172-7.615,71.65,2.5,97,30,25.786,27.972,33.7,68.69,20,105,39.23-32.1,45.915-87.745,20-124C265.8,585.149,200.757,576.62,158,615Zm231,6c38.909-20.9,83.852-17.471,114,6,39.855,31.028,50.6,94.239,18,144a111.724,111.724,0,0,0,55-73c5.883-26.323,2.4-56.435-14-82-11.931-18.594-40.863-50.436-88-49C438.5,568.081,405.93,588.736,389,621Z"/>
  <path id="hands_traço" class="cls-14" d="M144,621c-22.539,23.419-32.295,60.764-20,90,24.076,57.25,128.524,73.919,167,26,23.612-29.407,21.512-82.126-9-115C245.322,582.482,179.247,584.377,144,621Zm303-51c61.868-16.924,132.759,36.849,136,102,2.174,43.693-26.234,88.78-67,102-64.2,20.818-144.283-42.111-142-111C375.358,622.034,405.789,581.273,447,570Z"/>
  <path id="Forma_13" data-name="Forma 13" class="cls-11" d="M949,339c-6.935-19.47-3.814-36.4,5-42,11.778-7.477,33.719,5.274,43,21,10.59,17.951,2.676,36.689-3,70-1.843,10.814-3.171,21.783-4,33a150.184,150.184,0,0,0-25-19c-12.313-7.439-53.07-17-67-38-9.815-14.8-12.694-36.538-4-44C902.72,312.516,924.83,317.894,949,339ZM811,232c16.743-14.737,33.455-17.273,41-11,6.229,5.179,5.976,16.34,4,26-3.626,17.722-14.869,27.243-25,40a137.391,137.391,0,0,0-18,30c-3.646-8.967-7.631-17.6-12-26-17.012-32.692-33.527-49.883-27-66,4.423-10.923,18.735-20.413,28-16C808.112,211.911,811.727,220.746,811,232Zm149-79c-5.615-15.518.139-31.175,11-37,13.2-7.081,30.16,2.345,37,13,9.17,14.289.53,31.4-6,59a258.959,258.959,0,0,0-6,38,165.9,165.9,0,0,0-30-23c-21.593-12.873-39.307-16.793-49-35-7.334-13.777-8.658-32.868-1-38C923.541,124.947,940.939,132.652,960,153Z"/>
  <path id="Forma_13_copiar" data-name="Forma 13 copiar" class="cls-13" d="M949,339c-6.935-19.47-3.814-36.4,5-42,11.778-7.477,33.719,5.274,43,21,10.59,17.951,2.676,36.689-3,70-1.843,10.814-3.171,21.783-4,33a150.184,150.184,0,0,0-25-19c-12.313-7.439-53.07-17-67-38-9.815-14.8-12.694-36.538-4-44C902.72,312.516,924.83,317.894,949,339ZM811,232c16.743-14.737,33.455-17.273,41-11,6.229,5.179,5.976,16.34,4,26-3.626,17.722-14.869,27.243-25,40a137.391,137.391,0,0,0-18,30c-3.646-8.967-7.631-17.6-12-26-17.012-32.692-33.527-49.883-27-66,4.423-10.923,18.735-20.413,28-16C808.112,211.911,811.727,220.746,811,232Zm149-79c-5.615-15.518.139-31.175,11-37,13.2-7.081,30.16,2.345,37,13,9.17,14.289.53,31.4-6,59a258.959,258.959,0,0,0-6,38,165.9,165.9,0,0,0-30-23c-21.593-12.873-39.307-16.793-49-35-7.334-13.777-8.658-32.868-1-38C923.541,124.947,940.939,132.652,960,153Z"/>
</svg>
